<?xml version="1.0" encoding="utf-8"?>
<!-- Generator: Adobe Illustrator 28.3.0, SVG Export Plug-In . SVG Version: 6.00 Build 0)  -->
<svg version="1.1" id="レイヤー_1" xmlns="http://www.w3.org/2000/svg" xmlns:xlink="http://www.w3.org/1999/xlink" x="0px"
	 y="0px" width="697.3px" height="245.5px" viewBox="0 0 697.3 245.5" style="enable-background:new 0 0 697.3 245.5;"
	 xml:space="preserve" xmlns:c2pa="http://c2pa.org/manifest"><metadata><c2pa:manifest>AAAWgmp1bWIAAAAeanVtZGMycGEAEQAQgAAAqgA4m3EDYzJwYQAAABZcanVtYgAAAEdqdW1kYzJtYQARABCAAACqADibcQN1cm46YzJwYToyMjM4ZTgxOC0zNzE5LTQxYjQtYmFkMy02MWI4YmM2MGU4NTEAAAADl2p1bWIAAAApanVtZGMyYXMAEQAQgAAAqgA4m3EDYzJwYS5hc3NlcnRpb25zAAAAALxqdW1iAAAARGp1bWRjYm9yABEAEIAAAKoAOJtxE2MycGEuaW5ncmVkaWVudC52MwAAAAAYYzJzaP5i5tNuF82Da9fX79upU5wAAABwY2JvcqNpZGM6Zm9ybWF0bWltYWdlL3N2Zyt4bWxqaW5zdGFuY2VJRHgseG1wOmlpZDpkMWE3N2VkZC04YzYxLTRlNTItYWIzMS02MzdhODcxZTZhYWNscmVsYXRpb25zaGlwaHBhcmVudE9mAAAB4mp1bWIAAABBanVtZGNib3IAEQAQgAAAqgA4m3ETYzJwYS5hY3Rpb25zLnYyAAAAABhjMnNoiDiivPbthhXjWjADWxc1jAAAAZljYm9yomdhY3Rpb25zgqJmYWN0aW9ua2MycGEub3BlbmVkanBhcmFtZXRlcnOha2luZ3JlZGllbnRzgaJjdXJseC1zZWxmI2p1bWJmPWMycGEuYXNzZXJ0aW9ucy9jMnBhLmluZ3JlZGllbnQudjNkaGFzaFgg0ZttGX1tqfeSvUJHxTQq9+jf0TUW8XblskWcg8CudMykZmFjdGlvbngdY29tLmFudGhyb3BpYy5jbGF1ZGUucHJvdmlkZWRqcGFyYW1ldGVyc6F4H2NvbS5hbnRocm9waWMub3JpZ2luLWNvbmZpZGVuY2VndW5rbm93bmtkZXNjcmlwdGlvbnhmQ2xhdWRlIHByb3ZpZGVkIHRoaXMgZmlsZSBhdCB0aGUgcmVxdWVzdCBvZiBhIHVzZXIgYW5kIG1heSBoYXZlIGNyZWF0ZWQgb3IgbW9kaWZpZWQgdGhlIGZpbGUgY29udGVudHMubXNvZnR3YXJlQWdlbnShZG5hbWVmQ2xhdWRlcmFsbEFjdGlvbnNJbmNsdWRlZPUAAADIanVtYgAAAEBqdW1kY2JvcgARABCAAACqADibcRNjMnBhLmhhc2guZGF0YQAAAAAYYzJzaPG/hvmSSH/3v/vVT4NtXRgAAACAY2JvcqVjYWxnZnNoYTI1NmNwYWRMAAAAAAAAAAAAAAAAZGhhc2hYIO10IHTyem0Vuub1IwmYmVefZ29ydvaVnZMoqXpVCjIsZG5hbWVuanVtYmYgbWFuaWZlc3RqZXhjbHVzaW9uc4GiZXN0YXJ0GQHNZmxlbmd0aBkeBAAAAj5qdW1iAAAAJ2p1bWRjMmNsABEAEIAAAKoAOJtxA2MycGEuY2xhaW0udjIAAAACD2Nib3KlY2FsZ2ZzaGEyNTZpc2lnbmF0dXJleE1zZWxmI2p1bWJmPS9jMnBhL3VybjpjMnBhOjIyMzhlODE4LTM3MTktNDFiNC1iYWQzLTYxYjhiYzYwZTg1MS9jMnBhLnNpZ25hdHVyZWppbnN0YW5jZUlEeCx4bXA6aWlkOjU1MmI1NTIwLTAxY2UtNDA2Yi1hZTViLWJiMjcwMjE1ODE1N3JjcmVhdGVkX2Fzc2VydGlvbnODomN1cmx4LXNlbGYjanVtYmY9YzJwYS5hc3NlcnRpb25zL2MycGEuaW5ncmVkaWVudC52M2RoYXNoWCDRm20ZfW2p95K9QkfFNCr36N/RNRbxduWyRZyDwK50zKJjdXJseCpzZWxmI2p1bWJmPWMycGEuYXNzZXJ0aW9ucy9jMnBhLmFjdGlvbnMudjJkaGFzaFggf8NYWK6Dl8qhKqAO0gfoUGPmFkzRf3YEs4xHMn7m4xSiY3VybHgpc2VsZiNqdW1iZj1jMnBhLmFzc2VydGlvbnMvYzJwYS5oYXNoLmRhdGFkaGFzaFggNbKLSAy+yIeOe53jzIbmgmcioewhJOF2h1Ec86I04iZ0Y2xhaW1fZ2VuZXJhdG9yX2luZm+jZG5hbWVvQW50aHJvcGljIEZpbGVzZ3ZlcnNpb25lMS4wLjBrc3BlY1ZlcnNpb25lMi40LjAAABA4anVtYgAAAChqdW1kYzJjcwARABCAAACqADibcQNjMnBhLnNpZ25hdHVyZQAAABAIY2JvctKEWQISogEmGCFZAgowggIGMIIBjaADAgECAhRA5aAK7sI50L64g/oGQgU9Z1UTADAKBggqhkjOPQQDAzBJMRcwFQYDVQQKEw5BbnRocm9waWMsIFBCQzEuMCwGA1UEAxMlQW50aHJvcGljIENvbnRlbnQgQ3JlZGVudGlhbHMgUm9vdCBDQTAeFw0yNjA4MDcxODQzNTZaFw0yODA4MDYxOTQzNTZaMEQxFzAVBgNVBAoTDkFudGhyb3BpYywgUEJDMSkwJwYDVQQDEyBBbnRocm9waWMgQ2xhdWRlIENvbnRlbnQgU2lnbmluZzBZMBMGByqGSM49AgEGCCqGSM49AwEHA0IABJh6CmvLUBgFFNU0vUKlOVtE6djd17L5SuwX0LemFisBM3dkd/3cyjxFA3Qo5S46fX0/ihY0VZ7mfb9KF703t5OjWDBWMA4GA1UdDwEB/wQEAwIHgDAVBgNVHSUEDjAMBgorBgEEAYPoXgIBMAwGA1UdEwEB/wQCMAAwHwYDVR0jBBgwFoAUzlHiBIFOZFsj+OPEz5o+nMHXXMIwCgYIKoZIzj0EAwMDZwAwZAIwMXMdFJ4BetLLVY7ORuE9noqbbAZOZn/aArXyTwFAZfKrPzxF2vPoJNf1+UCdg1XGAjBwX1zd9WGqYkqmL5SFqw1QySjr1zJfpJM9+1rdDwSPLMOPOjKuiXjoU/pUUeG9RwmhY3BhZFkNngAAAAAAAAAAAAAAAAAAAAAAAAAAAAAAAAAAAAAAAAAAAAAAAAAAAAAAAAAAAAAAAAAAAAAAAAAAAAAAAAAAAAAAAAAAAAAAAAAAAAAAAAAAAAAAAAAAAAAAAAAAAAAAAAAAAAAAAAAAAAAAAAAAAAAAAAAAAAAAAAAAAAAAAAAAAAAAAAAAAAAAAAAAAAAAAAAAAAAAAAAAAAAAAAAAAAAAAAAAAAAAAAAAAAAAAAAAAAAAAAAAAAAAAAAAAAAAAAAAAAAAAAAAAAAAAAAAAAAAAAAAAAAAAAAAAAAAAAAAAAAAAAAAAAAAAAAAAAAAAAAAAAAAAAAAAAAAAAAAAAAAAAAAAAAAAAAAAAAAAAAAAAAAAAAAAAAAAAAAAAAAAAAAAAAAAAAAAAAAAAAAAAAAAAAAAAAAAAAAAAAAAAAAAAAAAAAAAAAAAAAAAAAAAAAAAAAAAAAAAAAAAAAAAAAAAAAAAAAAAAAAAAAAAAAAAAAAAAAAAAAAAAAAAAAAAAAAAAAAAAAAAAAAAAAAAAAAAAAAAAAAAAAAAAAAAAAAAAAAAAAAAAAAAAAAAAAAAAAAAAAAAAAAAAAAAAAAAAAAAAAAAAAAAAAAAAAAAAAAAAAAAAAAAAAAAAAAAAAAAAAAAAAAAAAAAAAAAAAAAAAAAAAAAAAAAAAAAAAAAAAAAAAAAAAAAAAAAAAAAAAAAAAAAAAAAAAAAAAAAAAAAAAAAAAAAAAAAAAAAAAAAAAAAAAAAAAAAAAAAAAAAAAAAAAAAAAAAAAAAAAAAAAAAAAAAAAAAAAAAAAAAAAAAAAAAAAAAAAAAAAAAAAAAAAAAAAAAAAAAAAAAAAAAAAAAAAAAAAAAAAAAAAAAAAAAAAAAAAAAAAAAAAAAAAAAAAAAAAAAAAAAAAAAAAAAAAAAAAAAAAAAAAAAAAAAAAAAAAAAAAAAAAAAAAAAAAAAAAAAAAAAAAAAAAAAAAAAAAAAAAAAAAAAAAAAAAAAAAAAAAAAAAAAAAAAAAAAAAAAAAAAAAAAAAAAAAAAAAAAAAAAAAAAAAAAAAAAAAAAAAAAAAAAAAAAAAAAAAAAAAAAAAAAAAAAAAAAAAAAAAAAAAAAAAAAAAAAAAAAAAAAAAAAAAAAAAAAAAAAAAAAAAAAAAAAAAAAAAAAAAAAAAAAAAAAAAAAAAAAAAAAAAAAAAAAAAAAAAAAAAAAAAAAAAAAAAAAAAAAAAAAAAAAAAAAAAAAAAAAAAAAAAAAAAAAAAAAAAAAAAAAAAAAAAAAAAAAAAAAAAAAAAAAAAAAAAAAAAAAAAAAAAAAAAAAAAAAAAAAAAAAAAAAAAAAAAAAAAAAAAAAAAAAAAAAAAAAAAAAAAAAAAAAAAAAAAAAAAAAAAAAAAAAAAAAAAAAAAAAAAAAAAAAAAAAAAAAAAAAAAAAAAAAAAAAAAAAAAAAAAAAAAAAAAAAAAAAAAAAAAAAAAAAAAAAAAAAAAAAAAAAAAAAAAAAAAAAAAAAAAAAAAAAAAAAAAAAAAAAAAAAAAAAAAAAAAAAAAAAAAAAAAAAAAAAAAAAAAAAAAAAAAAAAAAAAAAAAAAAAAAAAAAAAAAAAAAAAAAAAAAAAAAAAAAAAAAAAAAAAAAAAAAAAAAAAAAAAAAAAAAAAAAAAAAAAAAAAAAAAAAAAAAAAAAAAAAAAAAAAAAAAAAAAAAAAAAAAAAAAAAAAAAAAAAAAAAAAAAAAAAAAAAAAAAAAAAAAAAAAAAAAAAAAAAAAAAAAAAAAAAAAAAAAAAAAAAAAAAAAAAAAAAAAAAAAAAAAAAAAAAAAAAAAAAAAAAAAAAAAAAAAAAAAAAAAAAAAAAAAAAAAAAAAAAAAAAAAAAAAAAAAAAAAAAAAAAAAAAAAAAAAAAAAAAAAAAAAAAAAAAAAAAAAAAAAAAAAAAAAAAAAAAAAAAAAAAAAAAAAAAAAAAAAAAAAAAAAAAAAAAAAAAAAAAAAAAAAAAAAAAAAAAAAAAAAAAAAAAAAAAAAAAAAAAAAAAAAAAAAAAAAAAAAAAAAAAAAAAAAAAAAAAAAAAAAAAAAAAAAAAAAAAAAAAAAAAAAAAAAAAAAAAAAAAAAAAAAAAAAAAAAAAAAAAAAAAAAAAAAAAAAAAAAAAAAAAAAAAAAAAAAAAAAAAAAAAAAAAAAAAAAAAAAAAAAAAAAAAAAAAAAAAAAAAAAAAAAAAAAAAAAAAAAAAAAAAAAAAAAAAAAAAAAAAAAAAAAAAAAAAAAAAAAAAAAAAAAAAAAAAAAAAAAAAAAAAAAAAAAAAAAAAAAAAAAAAAAAAAAAAAAAAAAAAAAAAAAAAAAAAAAAAAAAAAAAAAAAAAAAAAAAAAAAAAAAAAAAAAAAAAAAAAAAAAAAAAAAAAAAAAAAAAAAAAAAAAAAAAAAAAAAAAAAAAAAAAAAAAAAAAAAAAAAAAAAAAAAAAAAAAAAAAAAAAAAAAAAAAAAAAAAAAAAAAAAAAAAAAAAAAAAAAAAAAAAAAAAAAAAAAAAAAAAAAAAAAAAAAAAAAAAAAAAAAAAAAAAAAAAAAAAAAAAAAAAAAAAAAAAAAAAAAAAAAAAAAAAAAAAAAAAAAAAAAAAAAAAAAAAAAAAAAAAAAAAAAAAAAAAAAAAAAAAAAAAAAAAAAAAAAAAAAAAAAAAAAAAAAAAAAAAAAAAAAAAAAAAAAAAAAAAAAAAAAAAAAAAAAAAAAAAAAAAAAAAAAAAAAAAAAAAAAAAAAAAAAAAAAAAAAAAAAAAAAAAAAAAAAAAAAAAAAAAAAAAAAAAAAAAAAAAAAAAAAAAAAAAAAAAAAAAAAAAAAAAAAAAAAAAAAAAAAAAAAAAAAAAAAAAAAAAAAAAAAAAAAAAAAAAAAAAAAAAAAAAAAAAAAAAAAAAAAAAAAAAAAAAAAAAAAAAAAAAAAAAAAAAAAAAAAAAAAAAAAAAAAAAAAAAAAAAAAAAAAAAAAAAAAAAAAAAAAAAAAAAAAAAAAAAAAAAAAAAAAAAAAAAAAAAAAAAAAAAAAAAAAAAAAAAAAAAAAAAAAAAAAAAAAAAAAAAAAAAAAAAAAAAAAAAAAAAAAAAAAAAAAAAAAAAAAAAAAAAAAAAAAAAAAAAAAAAAAAAAAAAAAAAAAAAAAAAAAAAAAAAAAAAAAAAAAAAAAAAAAAAAAAAAAAAAAAAAAAAAAAAAAAAAAAAAAAAAAAAAAAAAAAAAAAAAAAAAAAAAAAAAAAAAAAAAAAAAAAAAAAAAAAAAAAAAAAAAAAAAAAAAAAAAAAAAAAAAAAAAAAAAAAAAAAAAAAAAAAAAAAAAAAAAAAAAAAAAAAAAAAAAAAAAAAAAAAAAAAAAAAAAAAAAAAAAAAAAAAAAAAAAAAAAAAAAAAAAAAAAAAAAAAAAAAAAAAAAAAAAAAAAAAAAAAAAAAAAAAAAAAAAAAAAAAAAAAAAAAAAAAAAAAAAAAAAAAAAAAAAAAAAAAAAAAAAAAAAAAAAAAAAAAAAAAAAAAAAAAAAAAAAAAAAAAAAAAAAAAAAAAAAAAAAAAAAAAAAAAAAAAAAAAAAAAAAAAAAAAAAAAAAAAAAAAAAAAAAAAAAAAAAAAAAAAAAAAAAAAAAAAAAAAAAAAAAAAAAAAAAAAAAAAAAAAAAAAAAAAAAAAAAAAAAAAAAAAAAAAAAAAAAAAAAAAAAAAAAAAAAAAAAAAAAAAAAAAAAAAAAAAAAAAAAAAAAAAAAAAAAAAAAAAAAAAAAAAAAAAAAAAAAAAAAAAAAAAAAAAAAAAAAAAAAAAAAAAAAAAAAAAAAAAAAAAAAAAAAAAAAAAAAAAAAAAAAAAAAAAAAAAAAAAAAAAAAAAAAAAAAAAAAAAAAAAAAAAAAAAAAAAAAAAAAAAAAAAAAAAAAAAAAAAAAAAAAAAAAAAAAAAAAAAAAAAAAAAAAAAAAAAAAAAAAAAAAAAAAAAAAAAAAAAAAAAAAAAAAAAAAAAAAAAAAAAAAAAAAAAAAAAAAAAAAAAAAAAAAAAAAAAAAAAAAAAAAAAAAAAAAAAAAAAAAAAAAAAAAAAAAAAAAAAAAAAAAAAAAAAAAAAAAAAAAAAAAAAAAAAAAAAAAAAAAAAAAAAAAAAAAAAAAAAAAAAAAAAAAAAAAAAAAAAAAAAAAAAAAAAAAAAAAAAAAAAAAAAAAAAAAAAAAAAAAAAAAAAAAAAAAAAAAAAAAAAAAAAAAAAAAAAAAAAAAAAAAAAAAAAAAAAAAAAAAAAAAAAAAAAAAAAAAAAAAAAAAAAAAAAAAAAAAAAAAAAAAAAAAAAAAAAAAAAAAAAAAAAAAAAAAAAAAAAAAAAAAAAAAAAAAAAAAAAAAAAAAAAAAAAAAAAAAAAAAAAAAAAAAAAAAAAAAAAAAAAAAAAAAAAAAAAAAAAAAAAAAAAAAAAAAAAAAAAAAAAAAAAAAAAAAAAAAAAAAAAAAAAAAAAAAAAAAAAAAAAAAAAAAAAAAAAAAAAAAAAAAAAAAAAAAAAAAAAAAAAAAAAAAAAAAAAAAAAAAAAAAAAAAAAAAAAAAAAAAAAAAAAAAAAAAAAAAAAAAAAAAAAAAAAAAAAAAAAAAAAAAAAAAAAAAAAAAAAAAAAAAAAAAAAAAAAAAAAAAAAAAAAAAAAAAAAAAAAAAAAAAAAAAAAAAAAAAAAAAAAAAAAAAAPZYQDjX/w7TwEPMgsrcDeJGA2p01TN6mMstMEkS7HYZQl/Tca69TIAnQUbZ5/h8gdOmR1lJx9iEm62EVfFb84NElOo=</c2pa:manifest></metadata>
<style type="text/css">
	.st0{fill:#231815;}
	.st1{fill:#00469B;}
	.st2{fill:#00A4E3;}
	.st3{fill:#B7214A;}
</style>
<g>
	<path class="st0" d="M616.3,179.6l29-81.2c0.5-4.7,0.4-10.3-3.2-13.7c-6.2-5-15.2-4-21.9-1.8c-17,7.9-24.9,26.8-29.3,42.5
		c-6.2,17.9-13.2,36.1-19.3,53.6c0,0.1-0.1-0.1-0.1,0.6h-46.2l29.6-80.7l17.7-48.6c14.5-0.5,29.9-0.7,45.4-0.5
		c-1.4,5-3,10.3-4.4,15.5c17.2-15.7,37.7-21.8,60.1-19.6c6.5,1.1,14.1,4.5,18.4,11.2c7.1,11.2,4.4,25,1,36.9
		c-10.3,28.1-32,85.9-32,85.9H616.3z"/>
	<path class="st0" d="M520.1,179.5c0,0-6.2-6-7.4-9.2c-0.7-2-0.7-4.3,0.4-5.9l30-81c3.9-11,8.3-22.2,11.9-33.1
		c-15.9,0.4-30.1,0-45.3,0.7c-1.9,3.8-2.8,8.1-5.1,11.3c-2.8-4.5-6.5-8.1-11.1-11c-19.4-9.5-38.2-5.4-57.1,3.1
		c-26.7,12.6-51.1,38.9-57.6,67.7c4.8-0.7,9.9-3,15-3c-5.7,5.1-12,10.3-18,14.4l1.9-10.6c-7.2,1.4-16.1,3.2-23.7,5.2
		c-20.9,3.2-42.6,14.6-63.1,6.1c-8.5-2.9-15.9-11.7-17.5-20.7c-3.2-21.6,9.7-40,26.3-54.4c24-21.1,60.8-23.8,89.1-11.9
		c7.4-9.3,15.2-19.1,21.7-28.6c-3.9-2.9-8.1-5.2-12.2-6.6c-1.4-1.1-3.4-1.5-4.4-2.2c-15.4-6.1-31.3-6.7-46.7-5.4
		c-34.3,5.4-67.4,18.9-92.3,48.2c-21.9,26.7-36.1,63.2-24.6,96.5c8.1,17.6,26.3,31.7,44.5,31.7c36.9,0.9,69.5-25.9,100.9-47.2
		c0.2,4.5-0.7,10.4,0.2,14.9c1.1,15.7,15,28.1,28.6,32.1c21.4,6.6,44.6-2,61.5-16.1l1.2-0.2c3.4,5.9,7.2,12,13.8,15.1H520.1z
		 M477.5,129.3c-11,11.2-26.5,17.8-41.5,12.6c-5.8-1.8-8.3-7.6-9.9-13c-1.6-16.2,8.1-30.2,21.9-37.8c12.2-5.9,31.6-10.4,40.1,5
		C492.2,108.2,485.6,119.8,477.5,129.3"/>
	<path class="st0" d="M356.5,66.5c8.9,11.2,4.2,30.1-10.5,42.3c-14.7,12.2-33.9,13.1-42.8,2c-8.9-11.2-4.2-30.1,10.5-42.3
		C328.4,56.3,347.5,55.4,356.5,66.5"/>
	<path class="st1" d="M615.4,178.6l29-81.2c0.5-4.7,0.4-10.3-3.2-13.7c-6.2-5-15.2-4-21.9-1.8c-17,7.9-24.9,26.8-29.3,42.5
		c-6.2,17.9-13.2,36.1-19.3,53.6c0,0.1-0.1-0.1-0.1,0.6h-46.2L553.9,98l17.7-48.6c14.5-0.6,29.9-0.7,45.5-0.6
		c-1.4,5.1-3,10.3-4.4,15.5c17.2-15.7,37.7-21.8,60.1-19.6c6.5,1.1,14.1,4.5,18.4,11.2c7.1,11.2,4.4,25,1.1,36.9
		c-10.3,28.1-32,85.9-32,85.9H615.4z"/>
	<path class="st1" d="M519.2,178.6c0,0-6.2-5.9-7.4-9.2c-0.7-2-0.7-4.3,0.4-5.9l30.1-81c3.9-11,8.3-22.2,11.8-33.1
		c-15.9,0.4-30,0-45.2,0.7c-2,3.8-2.8,8.1-5.2,11.3c-2.8-4.5-6.5-8.1-11.1-11c-19.4-9.5-38.2-5.4-57.1,3.1
		c-26.7,12.6-51.1,38.9-57.6,67.7c4.8-0.7,9.9-3.1,15-3.1c-5.7,5.1-12,10.3-18,14.4l1.9-10.6c-7.2,1.5-16.1,3.2-23.7,5.2
		c-20.9,3.2-42.6,14.6-63.1,6.1c-8.5-2.9-15.9-11.7-17.5-20.7c-3.2-21.6,9.7-40,26.3-54.4c24-21.1,60.8-23.8,89.1-11.9
		c7.4-9.4,15.2-19.1,21.7-28.6c-3.9-2.9-8.1-5.2-12.2-6.6c-1.4-1.1-3.4-1.4-4.4-2.2c-15.4-6.1-31.3-6.7-46.7-5.4
		C312,8.8,279,22.4,254.1,51.7c-21.9,26.7-36.1,63.2-24.6,96.5c8.1,17.6,26.3,31.7,44.5,31.7c37,0.9,69.5-25.9,100.9-47.2
		c0.2,4.5-0.7,10.4,0.2,14.9c1.1,15.7,15,28.1,28.6,32.1c21.4,6.6,44.6-2,61.5-16l1.2-0.2c3.4,5.9,7.2,12,13.8,15.1H519.2z
		 M476.6,128.4c-11,11.2-26.5,17.8-41.6,12.6c-5.8-1.8-8.3-7.6-9.9-13c-1.6-16.2,8.1-30.2,21.9-37.8c12.2-5.9,31.6-10.4,40.1,5
		C491.3,107.3,484.8,118.9,476.6,128.4"/>
	<path class="st2" d="M355.6,65.6c8.9,11.2,4.2,30.1-10.5,42.3c-14.7,12.2-33.9,13.1-42.8,1.9c-8.9-11.2-4.2-30.1,10.5-42.3
		C327.5,55.4,346.6,54.5,355.6,65.6"/>
	<path class="st3" d="M12,66.3h-0.2c-1.8,3.3-3.2,5.2-5.6,8.6L1.1,60.2c11.5-15,15.6-32.9,16.9-46.5L29,15
		c-1.2,7.7-2.8,18.4-6.5,29.3v76H12V66.3z M100,18v102.4H89.6v-5H41.4v5H31.1V18H100z M41.4,105.2h48.2v-77H41.4V105.2z M70.4,31.8
		v7.8h16.1v9.8H70.4v11.1h13.5v37.3H47.3V60.5h13.3V49.4H44.6v-9.8h15.9v-7.8H70.4z M56.5,88.9h18.3V69.3H56.5V88.9z"/>
	<path class="st3" d="M128.5,77.1c-1.8,15.6-4.4,28.1-16.7,42.3l-8.2-9.4c12.5-12.3,14.7-27,15.8-55h-12.3V17.9h50.3v37.2h-27.2
		c-0.3,4.6-0.4,7-0.6,10.9h26.8c-0.2,8.1-1.6,39.9-3.9,46.1c-0.8,2.4-2.7,7.4-12.3,7.4H130l-2.1-10.6h10c4,0,4.5-1,5.2-4.1
		c0.4-2.6,1.7-15.4,2-27.6H128.5z M117.6,44.7h29.3V28.4h-29.3V44.7z M167.2,20.5h10.7v72.6h-10.7V20.5z M188.7,13.6h10.8v96.7
		c0,8-5.4,9.2-9.7,9.2h-15.8l-2.2-12.1h14.7c2.3,0,2.3-1.6,2.3-3.7V13.6z"/>
	<path class="st0" d="M48.7,233.2c4.6-2.3,15.6-7.4,24.6-19.1c-6.4-12.7-8.4-21.4-9.4-26.8c-1.2,2.1-1.7,3.1-3.4,5.8l-8.5-8.6
		c1.8-2.7,2.1-3.2,3.8-6.1H40.9c-1.7,1.8-3.7,4.1-8,8.1h18.5v9.5c-5.5,5.7-8.5,8.1-13.4,11.5v2.2c2.1-0.3,12.2-1.7,14.7-2
		c1.2-0.1,2.2-0.2,5.3-0.8v10c-4.4,0.9-8.7,1.8-19.9,3.5v15.4c0,3.7-2.2,8.4-7.3,8.4H15l-2-10.9h12c1.4,0,2.7-0.2,2.7-2.6v-8.9
		c-9.1,1.1-16.6,1.8-23.3,2.4l-0.8-11c7.2-0.5,14.1-0.8,24.2-2.1V203h3c2.2-1.6,6-5.2,7.3-7H21.4c-6.3,4.6-9.7,6.7-13.4,8.8
		l-4.8-10.1c4.5-2.4,12.8-6.7,23.6-16.2v-0.2H4.4v-10.3h19.4v-10.6H7.1v-10.2h16.8v-9h9.8v9h12.2v8.4h0.2c3.2-5.2,5-9.7,6.9-14.1
		l9.4,4.5c-1.9,4.3-5.2,11.7-12.9,22.1h7v9.1h0.2c7.5-15.2,10-33.4,10.9-39.5l10.4,1.1c-0.4,4.1-1.1,9.1-2.4,16.3h27.1v11.8h-5.2
		c-1.2,16.4-3.8,32.9-11.5,47.2c6.5,8.3,13,14.3,18.5,19.1l-6.2,11c-3.5-2.8-11.1-9-18.9-20.1c-9,11.1-18.3,16.9-23.6,20.1
		L48.7,233.2z M33.7,157.5v10.6h3.2c2-2.4,4.4-5.4,7.9-10.6H33.7z M72.6,166.8c-0.2,0.8-1.6,4.3-1.6,4.7c0,8.5,4.2,23.6,8.4,32
		c2.7-6.4,6.3-15.9,7.6-36.8H72.6z"/>
	<path class="st0" d="M192.5,181.2c-2.6-2.7-4.6-4.7-10-8.6c-51.5,4.2-53.9,4.4-73.3,4.4l-0.8-10.5c1.2,0,16.2-0.3,21.2-0.3
		c2.4-3.7,4-6.6,5.6-9.5h-29.8v-10.4h44.8V138h10.8v8.3h44.5v10.4h-26.7v0.2c2.6,1.1,14.2,8.3,22.5,16.4L192.5,181.2z M192.5,182.1
		v51c0,7.2-3.5,11.5-10.7,11.5h-17.9l-2.5-11.5h17.1c2.7,0,3.2-0.2,3.2-2.8v-6.2h-52.3v20.6h-11v-62.5H192.5z M129.3,198.7h52.3
		v-7.6h-52.3V198.7z M129.3,214.9h52.3v-7.2h-52.3V214.9z M165.1,161.2l8.3-4.3v-0.2h-25.5c-2.7,4.5-3.1,5.1-5.9,9.3
		c5.4-0.1,6-0.1,7.4-0.2c3.5-0.1,18.3-0.9,21.4-0.9v-0.2L165.1,161.2z"/>
	<path class="st1" d="M274,195.5c4.6,0,7.5,1.5,7.5,7.6v31.1c0,6-2.9,7.6-7.5,7.6h-27.8c-4.6,0-7.5-1.6-7.5-7.6v-31.1
		c0-6,2.9-7.6,7.5-7.6h6.8c0.2-0.5,0.8-3.1,1-3.6c0.7-1.8,2.3-2.2,4.2-2.2c1,0,5.7,0.2,5.7,3.2c0,0.2,0,1.3-0.6,2.5H274z
		 M272.4,208.3V205c0-0.9-0.3-1.3-1.3-1.3h-21.9c-1,0-1.3,0.4-1.3,1.3v3.3H272.4z M247.9,220.8h24.5v-4.9h-24.5V220.8z M247.9,228.4
		v3.8c0,0.9,0.3,1.3,1.3,1.3h21.9c1,0,1.3-0.4,1.3-1.3v-3.8H247.9z"/>
	<path class="st1" d="M274,195.5c4.6,0,7.5,1.5,7.5,7.6v31.1c0,6-2.9,7.6-7.5,7.6h-27.8c-4.6,0-7.5-1.6-7.5-7.6v-31.1
		c0-6,2.9-7.6,7.5-7.6h6.8c0.2-0.5,0.8-3.1,1-3.6c0.7-1.8,2.3-2.2,4.2-2.2c1,0,5.7,0.2,5.7,3.2c0,0.2,0,1.3-0.6,2.5H274z
		 M272.4,208.3V205c0-0.9-0.3-1.3-1.3-1.3h-21.9c-1,0-1.3,0.4-1.3,1.3v3.3H272.4z M247.9,220.8h24.5v-4.9h-24.5V220.8z M247.9,228.4
		v3.8c0,0.9,0.3,1.3,1.3,1.3h21.9c1,0,1.3-0.4,1.3-1.3v-3.8H247.9z"/>
	<path class="st1" d="M336.2,208.9c-2.2-2.7-8-11.5-8-14.7c0-2.3,2.5-4,5.1-4c2.4,0,3.1,1.1,4.2,3.2c0.6,1,4.4,7.6,9,12.2
		c3.9,3.9,4.4,4.5,4.4,6.3c0,2.6-2.5,5.7-5.1,5.7c-1.2,0-2.2-0.7-2.7-1c-0.4,9.6-0.8,14.2-1.6,18.3c-1.6,7.9-4.5,7.9-11,7.9
		c-4.4,0-5.1,0-6.2-0.3c-3-0.7-3.1-3.7-3.1-4.5c0-4.6,3.5-4.6,4.7-4.6c0.6,0,3.2,0.2,3.8,0.2c2.4,0,2.7-1.7,2.9-2.5
		c0.4-2.6,1.2-9.2,1.2-11.9c0-0.3,0-1.6-1.5-1.6H325c-1.2,17.1-16.4,25-19.8,25c-2.7,0-4.9-2.2-4.9-5.2c0-2.5,1.4-3.4,3-4.1
		c3.6-1.7,7-3.4,9.8-7.7c2.4-3.5,2.5-6.5,2.6-7.9h-4.4c-1.7,0-3-0.3-3.8-1.8c-0.5,0.5-1.6,1.4-3.2,1.4c-2.9,0-5.6-2.7-5.6-5.8
		c0-1.7,0.2-1.9,5.4-7c3.7-3.6,5.8-7.3,8.4-11.9c1-1.8,1.8-2.5,3.6-2.5c2.6,0,5.4,1.7,5.4,4.2c0,1.9-2.6,7.9-7.9,14.7H336.2z"/>
	<path class="st1" d="M336.2,208.9c-2.2-2.7-8-11.5-8-14.7c0-2.3,2.5-4,5.1-4c2.4,0,3.1,1.1,4.2,3.2c0.6,1,4.4,7.6,9,12.2
		c3.9,3.9,4.4,4.5,4.4,6.3c0,2.6-2.5,5.7-5.1,5.7c-1.2,0-2.2-0.7-2.7-1c-0.4,9.6-0.8,14.2-1.6,18.3c-1.6,7.9-4.5,7.9-11,7.9
		c-4.4,0-5.1,0-6.2-0.3c-3-0.7-3.1-3.7-3.1-4.5c0-4.6,3.5-4.6,4.7-4.6c0.6,0,3.2,0.2,3.8,0.2c2.4,0,2.7-1.7,2.9-2.5
		c0.4-2.6,1.2-9.2,1.2-11.9c0-0.3,0-1.6-1.5-1.6H325c-1.2,17.1-16.4,25-19.8,25c-2.7,0-4.9-2.2-4.9-5.2c0-2.5,1.4-3.4,3-4.1
		c3.6-1.7,7-3.4,9.8-7.7c2.4-3.5,2.5-6.5,2.6-7.9h-4.4c-1.7,0-3-0.3-3.8-1.8c-0.5,0.5-1.6,1.4-3.2,1.4c-2.9,0-5.6-2.7-5.6-5.8
		c0-1.7,0.2-1.9,5.4-7c3.7-3.6,5.8-7.3,8.4-11.9c1-1.8,1.8-2.5,3.6-2.5c2.6,0,5.4,1.7,5.4,4.2c0,1.9-2.6,7.9-7.9,14.7H336.2z"/>
	<path class="st1" d="M375.1,228.6c-0.8,1.4-1.7,2.9-4.2,2.9c-2.3,0-5.2-1.6-5.2-4.4c0-1.5,0.4-2.3,3.3-7.5
		c2.1-3.7,3.5-7.6,4.8-11.7c-2.6,0.1-3.9,0.1-5.1-0.2c-1.6-0.4-2.7-2.1-2.7-4.4c0-3.8,2.6-4.2,3.6-4.3c0.5-0.1,5.8-0.2,6.6-0.2
		c0.2-0.8,0.8-4.1,1-4.8c0.5-1.8,2.1-2.6,4-2.6c1.4,0,5.2,0.3,5.2,3.8c0,1.3-0.2,2.3-0.4,3.2c0.4,0,2.5-0.1,2.9-0.1
		c1.4,0,4.5,0.1,4.5,4.5c0,3.8-2.6,4.2-3.5,4.4c-1,0.2-1.9,0.2-6.5,0.3C382.4,210.9,379.4,220.5,375.1,228.6 M394.4,211.7
		c-0.3-4.1,3.9-4.1,4.6-4.1c1.6,0,4.4,0.4,4.5,3.7l0.4,10.3c3.9,2.1,6.6,4.5,7.2,5.1c1.5,1.4,1.8,2.6,1.8,3.6c0,2.5-1.8,5.2-4.8,5.2
		c-1.3,0-2.1-0.6-2.5-0.9c-0.4-0.4-2.1-2.2-2.5-2.6c-0.1,1.2-0.3,2.6-1.3,4.3c-2.3,4-7.7,4.5-10.7,4.5c-9.1,0-13.5-4.9-13.5-10.9
		c0-5.6,4.1-11.4,14.1-11.4c1.1,0,1.9,0.1,3,0.2L394.4,211.7z M391.4,226.4c-2,0-5.7,0.4-5.7,3.4c0,3.2,4.2,3.2,4.9,3.2
		c3,0,4.6-1,4.6-5.8C394.1,226.7,393.3,226.4,391.4,226.4 M398.6,193.9c2.5,0,8.9,4,12.4,6.7c2,1.6,2.6,2.9,2.6,4.3
		c0,2.9-2.4,4.9-4.7,4.9c-1.6,0-2.6-0.9-3.7-1.8c-3.1-2.6-3.6-3.1-8.7-6.1c-1-0.6-2.5-1.5-2.5-3.6c0-1.2,0.6-2.1,0.8-2.4
		C395.3,195.5,396.6,193.9,398.6,193.9"/>
	<path class="st1" d="M375.1,228.6c-0.8,1.4-1.7,2.9-4.2,2.9c-2.3,0-5.2-1.6-5.2-4.4c0-1.5,0.4-2.3,3.3-7.5
		c2.1-3.7,3.5-7.6,4.8-11.7c-2.6,0.1-3.9,0.1-5.1-0.2c-1.6-0.4-2.7-2.1-2.7-4.4c0-3.8,2.6-4.2,3.6-4.3c0.5-0.1,5.8-0.2,6.6-0.2
		c0.2-0.8,0.8-4.1,1-4.8c0.5-1.8,2.1-2.6,4-2.6c1.4,0,5.2,0.3,5.2,3.8c0,1.3-0.2,2.3-0.4,3.2c0.4,0,2.5-0.1,2.9-0.1
		c1.4,0,4.5,0.1,4.5,4.5c0,3.8-2.6,4.2-3.5,4.4c-1,0.2-1.9,0.2-6.5,0.3C382.4,210.9,379.4,220.5,375.1,228.6 M394.4,211.7
		c-0.3-4.1,3.9-4.1,4.6-4.1c1.6,0,4.4,0.4,4.5,3.7l0.4,10.3c3.9,2.1,6.6,4.5,7.2,5.1c1.5,1.4,1.8,2.6,1.8,3.6c0,2.5-1.8,5.2-4.8,5.2
		c-1.3,0-2.1-0.6-2.5-0.9c-0.4-0.4-2.1-2.2-2.5-2.6c-0.1,1.2-0.3,2.6-1.3,4.3c-2.3,4-7.7,4.5-10.7,4.5c-9.1,0-13.5-4.9-13.5-10.9
		c0-5.6,4.1-11.4,14.1-11.4c1.1,0,1.9,0.1,3,0.2L394.4,211.7z M391.4,226.4c-2,0-5.7,0.4-5.7,3.4c0,3.2,4.2,3.2,4.9,3.2
		c3,0,4.6-1,4.6-5.8C394.1,226.7,393.3,226.4,391.4,226.4 M398.6,193.9c2.5,0,8.9,4,12.4,6.7c2,1.6,2.6,2.9,2.6,4.3
		c0,2.9-2.4,4.9-4.7,4.9c-1.6,0-2.6-0.9-3.7-1.8c-3.1-2.6-3.6-3.1-8.7-6.1c-1-0.6-2.5-1.5-2.5-3.6c0-1.2,0.6-2.1,0.8-2.4
		C395.3,195.5,396.6,193.9,398.6,193.9"/>
	<path class="st1" d="M459.5,208.9c11.5,0,17.7,5.6,17.7,14.1c0,7.5-3.1,11.4-6.9,13.7c-4.4,2.6-10.1,3.5-16.8,3.5
		c-3.9,0-11-0.6-13.6-1.8c-2.1-0.9-2.4-3.4-2.4-4.1c0-1.4,0.8-4.4,4-4.4c0.7,0,2.1,0.3,2.4,0.4c3.1,0.7,6.2,1.1,9.3,1.1
		c5.2,0,14.1-1,14.1-7.9c0-5.9-6.4-6.2-8.7-6.2c-7.6,0-13,3.5-14.8,5.3c-1.6,1.6-2.3,2.4-4.8,2.4c-4.8,0-4.8-3.6-4.8-5.4
		c0-1.4,0.3-12.3,1-15.1c0.5-2.5,2.5-2.9,4.3-2.9c3.5,0,4.9,1.4,4.9,4c0,0.4,0,0.4-0.3,3.6c-0.2,2-0.2,2.9-0.3,4
		C448.5,210.3,454,208.9,459.5,208.9 M469.1,202.4c-0.9,0.8-1.8,0.9-3.6,0.9c-2.4,0-10.8-0.7-18.4-1.8c-6.4-0.9-8-1.6-8-4.8
		c0-0.7,0.2-4.6,3.9-4.6c1.1,0,5.7,0.9,6.7,1c3,0.4,6.8,0.9,14.3,1.2c3.5,0.2,6.5,0.3,6.5,4.8C470.5,199.8,470.3,201.5,469.1,202.4"
		/>
	<path class="st1" d="M459.5,208.9c11.5,0,17.7,5.6,17.7,14.1c0,7.5-3.1,11.4-6.9,13.7c-4.4,2.6-10.1,3.5-16.8,3.5
		c-3.9,0-11-0.6-13.6-1.8c-2.1-0.9-2.4-3.4-2.4-4.1c0-1.4,0.8-4.4,4-4.4c0.7,0,2.1,0.3,2.4,0.4c3.1,0.7,6.2,1.1,9.3,1.1
		c5.2,0,14.1-1,14.1-7.9c0-5.9-6.4-6.2-8.7-6.2c-7.6,0-13,3.5-14.8,5.3c-1.6,1.6-2.3,2.4-4.8,2.4c-4.8,0-4.8-3.6-4.8-5.4
		c0-1.4,0.3-12.3,1-15.1c0.5-2.5,2.5-2.9,4.3-2.9c3.5,0,4.9,1.4,4.9,4c0,0.4,0,0.4-0.3,3.6c-0.2,2-0.2,2.9-0.3,4
		C448.5,210.3,454,208.9,459.5,208.9 M469.1,202.4c-0.9,0.8-1.8,0.9-3.6,0.9c-2.4,0-10.8-0.7-18.4-1.8c-6.4-0.9-8-1.6-8-4.8
		c0-0.7,0.2-4.6,3.9-4.6c1.1,0,5.7,0.9,6.7,1c3,0.4,6.8,0.9,14.3,1.2c3.5,0.2,6.5,0.3,6.5,4.8C470.5,199.8,470.3,201.5,469.1,202.4"
		/>
	<path class="st1" d="M506,204.9c-1,0.1-5.7,0.4-6.6,0.4c-2.2,0-4.4-1.4-4.4-5c0-2,0.5-4.7,4-5.1c1.7-0.2,24.1-1.2,38.1-1.2
		c3,0,6.3,0,6.3,4.6c0,4.9-3.2,4.9-6.3,5c-10.8,0.2-21.7,9.9-21.7,18.7c0,6.7,6.4,7.5,13.8,7.5h5c2.4,0,4.3,1.3,4.3,4.6
		c0,5.7-4.4,5.7-8.4,5.7c-5.3,0-10.7-0.7-15.6-2.8c-5-2.1-8.9-6.8-8.9-14c0-6.4,2.9-10.9,5.1-13.5c2.5-3.1,4.9-4.6,6.9-5.9
		C515.3,204.2,510.5,204.7,506,204.9 M528.2,210.5c-0.1-0.2-0.2-0.5-0.2-0.9c0-1.1,1.4-1.8,2.2-1.8s1.6,0.6,2.6,2.8
		c0.2,0.3,1.6,3.1,1.6,4.5c0,1.5-1.6,1.9-2.2,1.9c-1.1,0-1.3-0.3-2.8-3.7C529.3,212.8,528.3,211,528.2,210.5 M533.7,208
		c-0.1-0.2-0.2-0.5-0.2-0.9c0-1.1,1.4-1.8,2.3-1.8c0.9,0,1.6,0.7,2.6,2.9c0.3,0.7,1.6,3.1,1.6,4.5c0,1.3-1.3,1.9-2.2,1.9
		c-1.1,0-1.2-0.3-2.8-3.7C534.9,210.2,533.8,208.3,533.7,208"/>
	<path class="st1" d="M506,204.9c-1,0.1-5.7,0.4-6.6,0.4c-2.2,0-4.4-1.4-4.4-5c0-2,0.5-4.7,4-5.1c1.7-0.2,24.1-1.2,38.1-1.2
		c3,0,6.3,0,6.3,4.6c0,4.9-3.2,4.9-6.3,5c-10.8,0.2-21.7,9.9-21.7,18.7c0,6.7,6.4,7.5,13.8,7.5h5c2.4,0,4.3,1.3,4.3,4.6
		c0,5.7-4.4,5.7-8.4,5.7c-5.3,0-10.7-0.7-15.6-2.8c-5-2.1-8.9-6.8-8.9-14c0-6.4,2.9-10.9,5.1-13.5c2.5-3.1,4.9-4.6,6.9-5.9
		C515.3,204.2,510.5,204.7,506,204.9 M528.2,210.5c-0.1-0.2-0.2-0.5-0.2-0.9c0-1.1,1.4-1.8,2.2-1.8s1.6,0.6,2.6,2.8
		c0.2,0.3,1.6,3.1,1.6,4.5c0,1.5-1.6,1.9-2.2,1.9c-1.1,0-1.3-0.3-2.8-3.7C529.3,212.8,528.3,211,528.2,210.5 M533.7,208
		c-0.1-0.2-0.2-0.5-0.2-0.9c0-1.1,1.4-1.8,2.3-1.8c0.9,0,1.6,0.7,2.6,2.9c0.3,0.7,1.6,3.1,1.6,4.5c0,1.3-1.3,1.9-2.2,1.9
		c-1.1,0-1.2-0.3-2.8-3.7C534.9,210.2,533.8,208.3,533.7,208"/>
	<path class="st1" d="M579.6,195.1c0-3.5,4-4.1,5.3-4.1c3.4,0,3.9,1.8,5,5.8c2.8-0.2,3.7-0.2,7-0.7c0.9-0.1,2.2-0.3,3-0.3
		c1.1,0,3.9,0.1,3.9,4.1c0,0.6,0,2.9-2.5,3.6c-1.7,0.5-4.3,0.7-9.1,1.1c0.6,1.8,0.8,2.1,1,2.6c3.1-0.2,6.2-0.6,8-0.9
		c1.9-0.3,2.2-0.3,2.7-0.3c3.6,0,3.6,3.5,3.6,4.1c0,2.3-1.4,3.5-3.2,3.8c-1.9,0.4-6.8,0.9-7.1,0.9c0.2,0.3,1.7,2.8,2.6,3.8
		c1.5,1.7,2.2,2.6,2.2,4.3c0,2.8-2.3,4.8-4.8,4.8c-0.3,0-0.9-0.1-2.4-0.6c-3.8-1.3-7.2-2.4-13.1-2.4c-1.2,0-5.1,0-7.2,1.1
		c-0.6,0.3-1.9,1.2-1.9,2.4c0,3.4,7.3,3.6,10.4,3.6c3,0,7-0.2,12.7-1.5c2.8-0.6,3.3-0.8,4-0.8c2.4,0,3.9,1.9,3.9,4.6
		c0,3.6-2.4,4.2-4.1,4.7c-3.6,1-8,1.8-14.7,1.8c-8.2,0-21.9-0.7-21.9-11.4c0-9.1,9.6-11.4,17.9-11.4c4.8,0,6.4,0.4,7.7,0.7
		c-0.7-1-1.1-1.6-1.8-3.1c-12.3,0.5-13.6,0.5-16.8,0.5c-1.5,0-6.5,0-7.7-0.3c-0.8-0.2-2.2-1.1-2.2-3.7c0-3.5,2.4-3.9,4.2-3.9
		c1.1,0,5.8,0.1,6.7,0.1c4.2,0,8.4,0,12.5-0.3c-0.7-1.7-0.9-2.1-1.1-2.7c-7.9,0.2-8.2,0.2-11.1,0.2c-6.4,0-6.9-0.1-7.6-0.6
		c-1.3-0.8-1.6-2.4-1.6-3.5c0-4.1,2.6-4.1,5.5-4.1c1.5,0,8,0.2,9.4,0.1c1.1,0,1.8-0.1,2.9-0.1C579.9,196.7,579.6,196,579.6,195.1"/>
	<path class="st1" d="M579.6,195.1c0-3.5,4-4.1,5.3-4.1c3.4,0,3.9,1.8,5,5.8c2.8-0.2,3.7-0.2,7-0.7c0.9-0.1,2.2-0.3,3-0.3
		c1.1,0,3.9,0.1,3.9,4.1c0,0.6,0,2.9-2.5,3.6c-1.7,0.5-4.3,0.7-9.1,1.1c0.6,1.8,0.8,2.1,1,2.6c3.1-0.2,6.2-0.6,8-0.9
		c1.9-0.3,2.2-0.3,2.7-0.3c3.6,0,3.6,3.5,3.6,4.1c0,2.3-1.4,3.5-3.2,3.8c-1.9,0.4-6.8,0.9-7.1,0.9c0.2,0.3,1.7,2.8,2.6,3.8
		c1.5,1.7,2.2,2.6,2.2,4.3c0,2.8-2.3,4.8-4.8,4.8c-0.3,0-0.9-0.1-2.4-0.6c-3.8-1.3-7.2-2.4-13.1-2.4c-1.2,0-5.1,0-7.2,1.1
		c-0.6,0.3-1.9,1.2-1.9,2.4c0,3.4,7.3,3.6,10.4,3.6c3,0,7-0.2,12.7-1.5c2.8-0.6,3.3-0.8,4-0.8c2.4,0,3.9,1.9,3.9,4.6
		c0,3.6-2.4,4.2-4.1,4.7c-3.6,1-8,1.8-14.7,1.8c-8.2,0-21.9-0.7-21.9-11.4c0-9.1,9.6-11.4,17.9-11.4c4.8,0,6.4,0.4,7.7,0.7
		c-0.7-1-1.1-1.6-1.8-3.1c-12.3,0.5-13.6,0.5-16.8,0.5c-1.5,0-6.5,0-7.7-0.3c-0.8-0.2-2.2-1.1-2.2-3.7c0-3.5,2.4-3.9,4.2-3.9
		c1.1,0,5.8,0.1,6.7,0.1c4.2,0,8.4,0,12.5-0.3c-0.7-1.7-0.9-2.1-1.1-2.7c-7.9,0.2-8.2,0.2-11.1,0.2c-6.4,0-6.9-0.1-7.6-0.6
		c-1.3-0.8-1.6-2.4-1.6-3.5c0-4.1,2.6-4.1,5.5-4.1c1.5,0,8,0.2,9.4,0.1c1.1,0,1.8-0.1,2.9-0.1C579.9,196.7,579.6,196,579.6,195.1"/>
	<path class="st1" d="M655.6,208.2c2.9,0,5.9,0.6,8.7,1.9c5.2,2.3,7.7,7.9,7.7,13.4c0,4.5-1.6,11.5-9.5,15.2
		c-4,1.9-8.4,2.5-12.8,2.5c-6.9,0-16.1-1.8-16.1-10.1c0-6.9,5.7-10.1,12-10.1c2,0,7.3,0.4,9.7,4.1c1.2,2,1.5,4,1.5,5.2
		c0,0.5-0.1,1-0.2,1.8c4.6-1.4,5.5-5.8,5.5-7.7c0-2-0.8-5.4-4.6-7.1c-1.8-0.8-4.2-0.8-5.5-0.8c-3.7,0-9.9,0.4-16.8,6.9
		c-3.4,3.2-4.2,3.7-5.5,3.7c-2.2,0-4.9-2-4.9-5.2c0-2.1,0.9-2.7,4.4-5.3c5.8-4.2,9-6.6,17.6-13.4c0.2-0.2,1-0.8,1.4-1.2
		c-2.5,0.1-5.3,0.3-10.8,0.8c-1.6,0.1-2.5,0.2-3.1,0.2c-2.6,0-4.8-1-4.8-4.6c0-3.5,2.3-4.6,5.1-4.6c7,0,13.3-0.2,21.9-0.5
		c1-0.1,2.3-0.1,2.8-0.1c3.5,0,5.6,0.9,5.6,4.1c0,1.8-0.5,3.4-2.8,4.7c-5.9,3.5-6.3,3.7-10.6,6.9
		C652.2,208.5,653.3,208.2,655.6,208.2 M649.6,231.8c0-3.4-3-3.4-3.8-3.4c-2.4,0-4,1-4,2.5c0,1.3,1.4,2.7,5.4,2.7
		c0.8,0,1.4-0.1,2.2-0.3C649.5,232.9,649.6,232.2,649.6,231.8"/>
	<path class="st1" d="M655.6,208.2c2.9,0,5.9,0.6,8.7,1.9c5.2,2.3,7.7,7.9,7.7,13.4c0,4.5-1.6,11.5-9.5,15.2
		c-4,1.9-8.4,2.5-12.8,2.5c-6.9,0-16.1-1.8-16.1-10.1c0-6.9,5.7-10.1,12-10.1c2,0,7.3,0.4,9.7,4.1c1.2,2,1.5,4,1.5,5.2
		c0,0.5-0.1,1-0.2,1.8c4.6-1.4,5.5-5.8,5.5-7.7c0-2-0.8-5.4-4.6-7.1c-1.8-0.8-4.2-0.8-5.5-0.8c-3.7,0-9.9,0.4-16.8,6.9
		c-3.4,3.2-4.2,3.7-5.5,3.7c-2.2,0-4.9-2-4.9-5.2c0-2.1,0.9-2.7,4.4-5.3c5.8-4.2,9-6.6,17.6-13.4c0.2-0.2,1-0.8,1.4-1.2
		c-2.5,0.1-5.3,0.3-10.8,0.8c-1.6,0.1-2.5,0.2-3.1,0.2c-2.6,0-4.8-1-4.8-4.6c0-3.5,2.3-4.6,5.1-4.6c7,0,13.3-0.2,21.9-0.5
		c1-0.1,2.3-0.1,2.8-0.1c3.5,0,5.6,0.9,5.6,4.1c0,1.8-0.5,3.4-2.8,4.7c-5.9,3.5-6.3,3.7-10.6,6.9
		C652.2,208.5,653.3,208.2,655.6,208.2 M649.6,231.8c0-3.4-3-3.4-3.8-3.4c-2.4,0-4,1-4,2.5c0,1.3,1.4,2.7,5.4,2.7
		c0.8,0,1.4-0.1,2.2-0.3C649.5,232.9,649.6,232.2,649.6,231.8"/>
</g>
</svg>
